<?xml version="1.0" standalone="no"?>
<!DOCTYPE svg PUBLIC "-//W3C//DTD SVG 20010904//EN"
 "http://www.w3.org/TR/2001/REC-SVG-20010904/DTD/svg10.dtd">
<svg version="1.0" xmlns="http://www.w3.org/2000/svg"
 width="196.000000pt" height="196.000000pt" viewBox="0 0 196.000000 196.000000"
 preserveAspectRatio="xMidYMid meet">
<metadata>
Created by potrace 1.14, written by Peter Selinger 2001-2017
</metadata>
<g transform="translate(0.000000,196.000000) scale(0.100000,-0.100000)"
fill="#000000" stroke="none">
<path d="M0 980 l0 -980 980 0 980 0 0 980 0 980 -980 0 -980 0 0 -980z m755
935 c109 -29 184 -73 270 -159 120 -122 175 -251 175 -414 0 -225 -128 -427
-333 -527 -225 -108 -476 -70 -655 100 -196 185 -244 453 -126 694 69 139 222
264 375 305 72 20 220 20 294 1z m749 -1 c254 -65 438 -302 439 -564 1 -166
-53 -300 -168 -416 -79 -80 -135 -116 -233 -149 -89 -30 -175 -38 -257 -25
-71 11 -204 58 -243 86 l-23 16 53 56 c29 32 55 58 58 59 3 2 20 -6 38 -17 32
-20 32 -20 17 -50 -15 -30 -15 -30 11 -40 14 -6 40 -11 57 -13 29 -2 32 1 35
31 l3 32 65 0 c60 0 64 -2 64 -22 0 -43 13 -51 61 -38 60 16 61 17 44 50 l-15
29 57 35 58 34 16 -25 c9 -13 19 -25 23 -26 3 -1 24 16 46 37 l41 39 -30 20
c-34 21 -34 21 16 100 23 36 25 37 46 22 12 -8 25 -15 29 -15 10 0 22 30 32
77 7 30 6 32 -26 35 l-33 3 -3 68 -3 67 37 0 36 0 -7 36 c-3 20 -10 47 -16 60
-9 24 -10 24 -40 9 -17 -9 -32 -15 -34 -13 -1 2 -17 28 -34 58 l-31 56 31 18
31 18 -43 44 -43 44 -19 -30 c-10 -17 -21 -30 -23 -30 -3 0 -98 56 -112 66 -2
1 4 16 12 33 l16 30 -52 16 c-56 16 -60 15 -64 -18 -1 -12 -3 -25 -3 -29 -1
-5 -30 -8 -66 -8 -61 0 -65 1 -65 23 0 40 -11 46 -63 32 -60 -15 -63 -19 -43
-51 17 -24 17 -26 -1 -40 -33 -25 -56 -28 -70 -8 -7 11 -32 38 -54 61 l-41 41
47 27 c120 71 300 95 439 59z m-77 -236 l31 -53 -28 -18 -29 -18 43 -72 c56
-95 127 -211 132 -216 3 -3 18 3 33 12 l29 17 31 -48 c17 -27 31 -53 31 -59 0
-6 -97 -71 -217 -143 -241 -148 -219 -144 -264 -58 l-19 37 27 19 26 19 -22
36 c-16 26 -20 43 -15 59 4 13 10 68 13 123 l6 100 69 -110 c38 -61 73 -114
76 -118 4 -5 21 -2 38 7 l30 16 -91 149 c-81 131 -94 148 -110 139 -24 -12
-27 -9 -52 61 l-21 58 100 57 c56 31 106 56 111 56 6 0 24 -24 42 -52z m-752
-993 c177 -50 305 -175 305 -297 0 -98 -85 -206 -205 -263 -108 -51 -157 -57
-464 -56 l-276 0 -3 65 -3 65 58 3 c32 2 57 6 56 11 -2 4 -3 90 -3 191 l0 185
-52 3 -53 3 -3 44 c-6 78 -26 74 296 68 230 -4 299 -8 347 -22z m713 -46 c-2
-65 -1 -73 20 -87 19 -13 25 -13 44 0 21 14 22 22 20 87 l-4 71 196 0 196 0 6
-23 c3 -13 4 -41 2 -63 l-3 -39 -51 -5 c-47 -5 -57 -11 -142 -89 -51 -47 -92
-88 -92 -91 0 -4 43 -47 96 -96 87 -80 101 -90 143 -94 l46 -5 0 -68 0 -68
-135 0 c-74 0 -163 0 -198 0 l-63 1 2 74 c2 63 -1 78 -20 102 l-21 27 -30 -28
c-18 -17 -26 -31 -20 -35 7 -4 10 -35 8 -75 l-3 -68 -199 1 c-109 1 -200 3
-202 4 -1 2 -4 32 -6 68 l-3 65 46 3 c42 3 56 11 153 94 59 50 105 94 104 98
-2 4 -51 46 -109 94 -95 77 -111 86 -148 86 -26 0 -41 5 -42 13 0 6 -1 34 -2
60 -2 26 -1 50 2 52 2 3 96 5 209 5 l204 0 -4 -71z"/>
<path d="M480 1826 c-45 -13 -48 -18 -35 -62 6 -18 -2 -26 -51 -54 -32 -18
-60 -28 -61 -23 -2 6 -10 19 -18 29 -13 18 -16 17 -55 -21 l-41 -40 27 -21 27
-22 -32 -56 c-18 -31 -36 -56 -40 -56 -3 0 -17 7 -29 16 -21 14 -23 14 -33
-13 -6 -15 -13 -43 -16 -60 -5 -32 -4 -33 28 -33 l34 0 -2 -58 c0 -31 -2 -63
-2 -69 -1 -8 -14 -13 -31 -13 -16 0 -30 -5 -30 -11 0 -17 22 -99 27 -99 2 0
17 7 33 15 l28 15 32 -57 32 -57 -27 -22 -28 -22 42 -43 c24 -24 45 -39 47
-33 3 6 11 20 19 30 13 18 16 18 70 -11 56 -30 58 -34 40 -77 -8 -19 9 -29 72
-42 30 -7 32 -6 35 26 l3 33 65 0 65 0 3 -33 c3 -33 4 -34 39 -27 19 3 46 11
60 16 23 8 23 10 9 31 -24 34 -20 41 40 73 l56 30 20 -28 21 -28 38 37 c22 21
39 42 39 46 0 5 -11 14 -25 20 -14 6 -25 14 -25 18 0 3 14 32 31 63 l30 57 31
-16 c16 -8 32 -13 35 -11 2 3 10 28 18 56 l13 51 -33 0 c-29 0 -33 3 -38 33
-8 55 3 107 23 107 46 0 50 8 33 63 -8 29 -17 54 -18 56 -2 1 -14 -4 -27 -13
-12 -9 -26 -16 -29 -16 -4 0 -22 25 -40 56 l-32 56 28 22 28 22 -33 37 c-37
43 -55 46 -71 15 -6 -13 -13 -24 -14 -26 -6 -7 -115 61 -115 72 0 6 7 21 15
33 14 20 13 22 -17 31 -85 26 -88 26 -88 -13 l0 -35 -70 0 -70 0 0 35 c0 19
-3 35 -7 34 -5 -1 -28 -6 -53 -13z m332 -133 c38 -34 8 -113 -42 -113 -25 0
-70 43 -70 66 0 27 40 64 68 64 14 0 34 -7 44 -17z m-221 -95 c0 -57 0 -136
-1 -175 -1 -68 0 -73 19 -73 20 0 21 -6 21 -95 0 -76 -3 -95 -15 -95 -8 0 -22
11 -32 24 -18 23 -18 23 -44 4 -88 -65 -221 -8 -250 107 -9 35 -16 45 -31 45
-18 0 -20 4 -14 42 15 92 68 138 160 138 l56 0 0 35 c0 28 -4 35 -19 35 -14 0
-20 9 -23 38 -9 69 -5 72 88 72 l84 0 1 -102z m239 -157 c0 -85 1 -90 23 -93
21 -3 22 -6 21 -118 -2 -130 -14 -172 -64 -214 -25 -20 -42 -26 -80 -26 -46 0
-100 16 -100 29 0 3 5 22 10 42 9 32 13 35 40 31 53 -8 60 8 60 134 0 107 -1
114 -20 114 -16 0 -20 7 -20 35 0 28 -4 35 -20 35 -18 0 -20 7 -20 60 l0 60
85 0 85 0 0 -89z"/>
<path d="M376 1388 c-21 -29 -20 -38 2 -38 10 0 22 -12 29 -30 13 -36 36 -46
67 -32 29 13 42 52 17 52 -10 0 -24 14 -32 33 -18 41 -59 49 -83 15z"/>
<path d="M390 385 l0 -175 68 0 c159 0 262 70 262 178 0 68 -65 139 -149 162
-20 5 -69 10 -108 10 l-73 0 0 -175z"/>
</g>
</svg>
